<?xml version="1.0" encoding="UTF-8" standalone="no"?><!DOCTYPE svg PUBLIC "-//W3C//DTD SVG 1.1//EN" "http://www.w3.org/Graphics/SVG/1.1/DTD/svg11.dtd"><svg width="100%" height="100%" viewBox="0 0 138 181" version="1.1" xmlns="http://www.w3.org/2000/svg" xmlns:xlink="http://www.w3.org/1999/xlink" xml:space="preserve" xmlns:serif="http://www.serif.com/" style="fill-rule:evenodd;clip-rule:evenodd;stroke-linejoin:round;stroke-miterlimit:2;"><path d="M118.664,9.175c0,-5.064 4.112,-9.175 9.175,-9.175c5.064,0 9.175,4.111 9.175,9.175c-0.983,28.528 -4.234,53.343 -8.507,74.583c-1.919,9.536 -4.022,18.348 -6.299,26.448c-7.785,27.685 -18.315,47.054 -30.092,57.697c-7.793,7.043 -16.154,10.585 -24.418,10.802c-10.1,0.265 -20.359,-4.36 -29.477,-14.598c-10.754,-12.075 -19.508,-32.75 -26.32,-62.003c-5.714,-24.535 -10.634,-55.241 -11.901,-92.929c-0,-5.064 4.111,-9.175 9.175,-9.175c5.064,0 9.175,4.111 9.175,9.175c-1.007,27.843 -0.256,51.966 2.458,72.463c1.226,9.261 2.769,17.783 4.783,25.502c6.549,25.103 16.353,41.693 26.696,50.464c4.88,4.139 9.909,6.245 15.027,6.127c7.582,-0.174 15.006,-4.969 21.995,-13.68c8.342,-10.395 16.05,-25.872 21.549,-46.411c1.834,-6.85 3.366,-14.263 4.585,-22.203c3.168,-20.635 4.168,-44.773 3.221,-72.262Z" style="fill:#282828;"/></svg>